# xmcd
#
# Track frame offsets:
#	150
#	19330
#	37542
#	54507
#	75762
#	93000
#	110845
#	128777
#	143842
#	173975
#	184472
#	202485
#
# Disc length: 2936 seconds
#
# Revision: 0
# Processed by: cddbd v1.5.2PL0 Copyright (c) Steve Scherf et al.
# Submitted via: EasyCDDAExtractor 11.5.0.1
#
DISCID=9f0b760c
DTITLE=소규모아카시아밴드
DYEAR=1900
DGENRE=
TTITLE0=Hello
TTITLE1=so good bye
TTITLE2=s
TTITLE3=in
TTITLE4=뚜뚜뚜(ddu ddu ddu)
TTITLE5=오징어 보트(a squid boat)
TTITLE6=랄랄라(lalala)
TTITLE7=monkey
TTITLE8=fish
TTITLE9=love is lie
TTITLE10=나비(butterfly)
TTITLE11=come back
EXTD=
EXTT0=
EXTT1=
EXTT2=
EXTT3=
EXTT4=
EXTT5=
EXTT6=
EXTT7=
EXTT8=
EXTT9=
EXTT10=
EXTT11=
PLAYORDER=
